<?xml version="1.0" encoding="UTF-8"?>
<!DOCTYPE svg PUBLIC "-//W3C//DTD SVG 1.1//EN" "http://www.w3.org/Graphics/SVG/1.1/DTD/svg11.dtd">
<svg xmlns="http://www.w3.org/2000/svg" version="1.1" width="227px" height="222px" style="shape-rendering:geometricPrecision; text-rendering:geometricPrecision; image-rendering:optimizeQuality; fill-rule:evenodd; clip-rule:evenodd" xmlns:xlink="http://www.w3.org/1999/xlink">
<g><path style="opacity:0.004" fill="#fefffe" d="M 224.5,-0.5 C 224.833,-0.5 225.167,-0.5 225.5,-0.5C 225.315,0.170143 224.981,0.170143 224.5,-0.5 Z"/></g>
<g><path style="opacity:0.004" fill="#fefffe" d="M 184.5,1.5 C 185.833,2.16667 185.833,2.16667 184.5,1.5 Z"/></g>
<g><path style="opacity:0.004" fill="#fefffe" d="M 125.5,5.5 C 126.833,6.16667 126.833,6.16667 125.5,5.5 Z"/></g>
<g><path style="opacity:0.004" fill="#fefffe" d="M 16.5,10.5 C 17.8333,11.1667 17.8333,11.1667 16.5,10.5 Z"/></g>
<g><path style="opacity:1" fill="#2ba449" d="M 142.5,13.5 C 128.275,10.9846 113.942,10.1513 99.5,11C 89.3798,13.0869 79.3798,15.5869 69.5,18.5C 93.2006,7.41461 117.534,5.74795 142.5,13.5 Z"/></g>
<g><path style="opacity:1" fill="#21b944" d="M 142.5,13.5 C 148.635,14.8734 154.301,17.2067 159.5,20.5C 162.161,23.5023 165.495,25.5023 169.5,26.5C 169.833,26.5 170.167,26.5 170.5,26.5C 170.539,27.5832 170.873,28.5832 171.5,29.5C 178.477,34.1495 184.81,39.4828 190.5,45.5C 198.186,53.5257 203.852,62.859 207.5,73.5C 207.89,81.0253 209.224,88.3586 211.5,95.5C 213.241,111.332 212.574,126.999 209.5,142.5C 204.497,158.822 195.83,172.822 183.5,184.5C 179.344,185.159 176.677,187.492 175.5,191.5C 166.447,199.194 156.114,204.527 144.5,207.5C 137.102,208.213 129.769,209.379 122.5,211C 115.167,211.667 107.833,211.667 100.5,211C 93.5525,209.333 86.5525,207.666 79.5,206C 80.9928,204.844 80.8261,204.01 79,203.5C 75.5891,204.859 72.4224,204.359 69.5,202C 72.5799,199.71 75.7466,197.543 79,195.5C 79.4317,194.4 78.9317,193.733 77.5,193.5C 74.4388,194.683 71.4388,196.016 68.5,197.5C 67.2387,194.18 65.572,193.846 63.5,196.5C 67.4436,198.404 67.1103,199.404 62.5,199.5C 55.9478,196.727 50.2812,192.727 45.5,187.5C 42.8712,184.369 40.0379,181.369 37,178.5C 36.6256,176.102 36.6256,173.769 37,171.5C 34.9307,170.736 32.764,170.236 30.5,170C 29.1258,167.417 27.6258,164.917 26,162.5C 25.1841,161.177 24.0174,160.511 22.5,160.5C 19.6392,154.583 16.9725,148.583 14.5,142.5C 15.1239,142.083 15.4573,141.416 15.5,140.5C 13.8253,133.036 12.1587,125.703 10.5,118.5C 10.5,117.833 10.5,117.167 10.5,116.5C 11.4715,105.087 12.8049,93.7541 14.5,82.5C 17.2887,77.4549 19.7887,72.1215 22,66.5C 22.49,65.2068 22.6567,63.8734 22.5,62.5C 25.0563,56.9508 28.3897,51.9508 32.5,47.5C 39.8211,40.1815 47.4878,33.1815 55.5,26.5C 59.5067,22.8255 64.1734,20.1588 69.5,18.5C 79.3798,15.5869 89.3798,13.0869 99.5,11C 113.942,10.1513 128.275,10.9846 142.5,13.5 Z M 161.5,72.5 C 167.415,74.1243 172.749,76.791 177.5,80.5C 179.5,82.1667 181.5,83.8333 183.5,85.5C 184.833,88.1667 186.167,90.8333 187.5,93.5C 191.495,102.041 192.495,111.041 190.5,120.5C 190.5,120.833 190.5,121.167 190.5,121.5C 188.519,125.461 186.519,129.461 184.5,133.5C 180.077,138.26 175.077,142.26 169.5,145.5C 159.297,149.08 148.964,149.413 138.5,146.5C 138.167,146.5 137.833,146.5 137.5,146.5C 135.131,144.478 132.464,143.311 129.5,143C 130.481,150.413 130.814,157.913 130.5,165.5C 125.167,165.5 119.833,165.5 114.5,165.5C 114.5,144.833 114.5,124.167 114.5,103.5C 117.344,89.991 125.011,80.3243 137.5,74.5C 145.326,71.7045 153.326,71.0378 161.5,72.5 Z M 33.5,72.5 C 41.5206,80.1881 49.5206,87.8548 57.5,95.5C 61.1667,99.8333 65.1667,103.833 69.5,107.5C 72.5,111.167 75.8333,114.5 79.5,117.5C 82.1456,120.812 85.1456,123.812 88.5,126.5C 89.4993,112.182 89.8326,97.8488 89.5,83.5C 94.5,83.5 99.5,83.5 104.5,83.5C 104.667,110.502 104.5,137.502 104,164.5C 100.631,160.963 97.1309,157.629 93.5,154.5C 85.5,145.833 77.1667,137.5 68.5,129.5C 64.5,124.833 60.1667,120.5 55.5,116.5C 49.5,109.833 43.1667,103.5 36.5,97.5C 35.8783,96.3734 35.045,95.3734 34,94.5C 33.5003,87.1742 33.3337,79.8409 33.5,72.5 Z"/></g>
<g><path style="opacity:0.004" fill="#fefffe" d="M 14.5,17.5 C 15.8333,18.1667 15.8333,18.1667 14.5,17.5 Z"/></g>
<g><path style="opacity:0.004" fill="#fefffe" d="M 46.5,19.5 C 47.8333,20.1667 47.8333,20.1667 46.5,19.5 Z"/></g>
<g><path style="opacity:1" fill="#2a984c" d="M 159.5,20.5 C 163.173,22.0002 166.506,24.0002 169.5,26.5C 165.495,25.5023 162.161,23.5023 159.5,20.5 Z"/></g>
<g><path style="opacity:0.004" fill="#fefffe" d="M 182.5,32.5 C 183.833,33.1667 183.833,33.1667 182.5,32.5 Z"/></g>
<g><path style="opacity:0.988" fill="#2d984a" d="M 170.5,26.5 C 178.477,31.4773 185.143,37.8106 190.5,45.5C 184.81,39.4828 178.477,34.1495 171.5,29.5C 170.873,28.5832 170.539,27.5832 170.5,26.5 Z"/></g>
<g><path style="opacity:0.004" fill="#fefffe" d="M 29.5,35.5 C 30.8333,36.1667 30.8333,36.1667 29.5,35.5 Z"/></g>
<g><path style="opacity:1" fill="#2f9947" d="M 55.5,26.5 C 47.4878,33.1815 39.8211,40.1815 32.5,47.5C 38.6118,38.7181 46.2785,31.7181 55.5,26.5 Z"/></g>
<g><path style="opacity:0.004" fill="#fefffe" d="M 197.5,50.5 C 198.833,51.1667 198.833,51.1667 197.5,50.5 Z"/></g>
<g><path style="opacity:0.004" fill="#fefffe" d="M 10.5,58.5 C 11.8333,59.1667 11.8333,59.1667 10.5,58.5 Z"/></g>
<g><path style="opacity:0.42" fill="#2e9d4b" d="M 161.5,72.5 C 153.326,71.0378 145.326,71.7045 137.5,74.5C 138.848,72.5197 140.848,71.353 143.5,71C 146.5,70.8333 149.5,70.6667 152.5,70.5C 155.913,70.517 158.913,71.1836 161.5,72.5 Z"/></g>
<g><path style="opacity:1" fill="#299e47" d="M 22.5,62.5 C 22.6567,63.8734 22.49,65.2068 22,66.5C 19.7887,72.1215 17.2887,77.4549 14.5,82.5C 15.8092,75.2286 18.4759,68.562 22.5,62.5 Z"/></g>
<g><path style="opacity:0.392" fill="#349b4e" d="M 33.5,72.5 C 33.8966,71.475 34.5632,71.3083 35.5,72C 43.4268,79.4218 50.7601,87.2552 57.5,95.5C 49.5206,87.8548 41.5206,80.1881 33.5,72.5 Z"/></g>
<g><path style="opacity:0.357" fill="#299948" d="M 33.5,72.5 C 33.3337,79.8409 33.5003,87.1742 34,94.5C 35.045,95.3734 35.8783,96.3734 36.5,97.5C 34.9826,97.4894 33.8159,96.8228 33,95.5C 32.1777,87.6554 32.3443,79.9887 33.5,72.5 Z"/></g>
<g><path style="opacity:1" fill="#2ca149" d="M 183.5,85.5 C 184.833,85.5 186.167,85.5 187.5,85.5C 188.096,90.4551 189.596,95.1218 192,99.5C 192.667,106.167 192.667,112.833 192,119.5C 191.617,120.056 191.117,120.389 190.5,120.5C 192.495,111.041 191.495,102.041 187.5,93.5C 186.167,90.8333 184.833,88.1667 183.5,85.5 Z"/></g>
<g><path style="opacity:0.451" fill="#2e9a4d" d="M 167.5,93.5 C 162.747,90.7497 157.581,89.083 152,88.5C 147.829,89.7524 143.662,91.0858 139.5,92.5C 143.057,89.0877 147.39,87.421 152.5,87.5C 158.53,87.2424 163.53,89.2424 167.5,93.5 Z"/></g>
<g><path style="opacity:0.004" fill="#fefffe" d="M 8.5,89.5 C 9.83333,90.1667 9.83333,90.1667 8.5,89.5 Z"/></g>
<g><path style="opacity:1" fill="#26a248" d="M 14.5,82.5 C 12.8049,93.7541 11.4715,105.087 10.5,116.5C 9.2692,104.913 10.6025,93.5799 14.5,82.5 Z"/></g>
<g><path style="opacity:1" fill="#21b944" d="M 167.5,93.5 C 170.647,95.3129 172.647,97.9796 173.5,101.5C 175.492,108.593 174.659,115.259 171,121.5C 170,122.833 169,122.833 168,121.5C 167.506,123.134 167.34,124.801 167.5,126.5C 164.618,126.608 162.285,127.774 160.5,130C 155.136,130.829 149.802,130.663 144.5,129.5C 142.135,128.915 140.135,127.748 138.5,126C 141.087,124.475 141.92,122.308 141,119.5C 139.513,120.253 139.346,121.086 140.5,122C 139.391,122.638 138.225,123.138 137,123.5C 134.94,121.718 133.107,119.718 131.5,117.5C 131.629,110.656 132.629,103.989 134.5,97.5C 135.167,94.8333 136.833,93.1667 139.5,92.5C 143.662,91.0858 147.829,89.7524 152,88.5C 157.581,89.083 162.747,90.7497 167.5,93.5 Z"/></g>
<g><path style="opacity:0.161" fill="#2a9448" d="M 89.5,83.5 C 89.8326,97.8488 89.4993,112.182 88.5,126.5C 85.1456,123.812 82.1456,120.812 79.5,117.5C 82.4123,119.066 85.079,121.066 87.5,123.5C 88.1667,110.006 88.8333,96.6728 89.5,83.5 Z"/></g>
<g><path style="opacity:1" fill="#279447" d="M 57.5,95.5 C 62.5,98.5 66.5,102.5 69.5,107.5C 65.1667,103.833 61.1667,99.8333 57.5,95.5 Z"/></g>
<g><path style="opacity:1" fill="#26a448" d="M 36.5,97.5 C 43.1667,103.5 49.5,109.833 55.5,116.5C 52.1233,115.298 49.4566,113.131 47.5,110C 46.552,109.517 45.552,109.351 44.5,109.5C 44.0399,106.043 42.0399,104.377 38.5,104.5C 38.1218,102.079 37.4552,99.7457 36.5,97.5 Z"/></g>
<g><path style="opacity:1" fill="#32a34b" d="M 134.5,97.5 C 132.629,103.989 131.629,110.656 131.5,117.5C 129.551,112.074 129.718,106.408 132,100.5C 132.377,99.0577 133.21,98.0577 134.5,97.5 Z"/></g>
<g><path style="opacity:1" fill="#27a54a" d="M 207.5,73.5 C 217.032,96.2722 217.699,119.272 209.5,142.5C 212.574,126.999 213.241,111.332 211.5,95.5C 209.224,88.3586 207.89,81.0253 207.5,73.5 Z"/></g>
<g><path style="opacity:1" fill="#2c9e47" d="M 10.5,118.5 C 12.1587,125.703 13.8253,133.036 15.5,140.5C 15.4573,141.416 15.1239,142.083 14.5,142.5C 12.2651,134.658 10.9318,126.658 10.5,118.5 Z"/></g>
<g><path style="opacity:1" fill="#2ba349" d="M 173.5,101.5 C 178.141,119.512 171.141,130.178 152.5,133.5C 141.996,132.652 134.996,127.318 131.5,117.5C 133.107,119.718 134.94,121.718 137,123.5C 138.225,123.138 139.391,122.638 140.5,122C 139.346,121.086 139.513,120.253 141,119.5C 141.92,122.308 141.087,124.475 138.5,126C 140.135,127.748 142.135,128.915 144.5,129.5C 149.802,130.663 155.136,130.829 160.5,130C 162.285,127.774 164.618,126.608 167.5,126.5C 167.34,124.801 167.506,123.134 168,121.5C 169,122.833 170,122.833 171,121.5C 174.659,115.259 175.492,108.593 173.5,101.5 Z"/></g>
<g><path style="opacity:0.765" fill="#2c9549" d="M 190.5,121.5 C 190.58,126.621 188.58,130.621 184.5,133.5C 186.519,129.461 188.519,125.461 190.5,121.5 Z"/></g>
<g><path style="opacity:1" fill="#29a647" d="M 68.5,129.5 C 77.1667,137.5 85.5,145.833 93.5,154.5C 88.4266,150.934 83.7599,146.768 79.5,142C 77.5594,141.257 75.7261,141.424 74,142.5C 73.2571,140.559 73.4238,138.726 74.5,137C 71.8823,134.894 69.8823,132.394 68.5,129.5 Z"/></g>
<g><path style="opacity:1" fill="#2c9348" d="M 169.5,145.5 C 169.53,146.497 169.03,147.164 168,147.5C 159.609,149.478 151.109,149.978 142.5,149C 140.563,148.878 139.23,148.045 138.5,146.5C 148.964,149.413 159.297,149.08 169.5,145.5 Z"/></g>
<g><path style="opacity:1" fill="#289e43" d="M 104.5,83.5 C 106.491,110.48 107.158,137.813 106.5,165.5C 102.853,165.378 100.019,163.712 98,160.5C 97.6924,161.308 97.1924,161.975 96.5,162.5C 95.7452,159.675 94.7452,157.009 93.5,154.5C 97.1309,157.629 100.631,160.963 104,164.5C 104.5,137.502 104.667,110.502 104.5,83.5 Z"/></g>
<g><path style="opacity:1" fill="#2f9749" d="M 114.5,103.5 C 114.5,124.167 114.5,144.833 114.5,165.5C 119.833,165.5 125.167,165.5 130.5,165.5C 130.814,157.913 130.481,150.413 129.5,143C 132.464,143.311 135.131,144.478 137.5,146.5C 135.533,146.261 133.699,146.594 132,147.5C 131.5,153.825 131.334,160.158 131.5,166.5C 125.5,166.5 119.5,166.5 113.5,166.5C 113.169,145.327 113.503,124.327 114.5,103.5 Z"/></g>
<g><path style="opacity:1" fill="#27a849" d="M 22.5,160.5 C 24.0174,160.511 25.1841,161.177 26,162.5C 27.6258,164.917 29.1258,167.417 30.5,170C 32.764,170.236 34.9307,170.736 37,171.5C 36.6256,173.769 36.6256,176.102 37,178.5C 40.0379,181.369 42.8712,184.369 45.5,187.5C 41.933,185.443 38.7663,182.777 36,179.5C 30.9992,173.489 26.4992,167.156 22.5,160.5 Z"/></g>
<g><path style="opacity:0.004" fill="#fefffe" d="M 17.5,179.5 C 18.8333,180.167 18.8333,180.167 17.5,179.5 Z"/></g>
<g><path style="opacity:0.004" fill="#fefffe" d="M 200.5,179.5 C 201.833,180.167 201.833,180.167 200.5,179.5 Z"/></g>
<g><path style="opacity:0.471" fill="#289144" d="M 183.5,184.5 C 180.874,186.823 178.207,189.157 175.5,191.5C 176.677,187.492 179.344,185.159 183.5,184.5 Z"/></g>
<g><path style="opacity:0.004" fill="#fefffe" d="M 24.5,189.5 C 25.8333,190.167 25.8333,190.167 24.5,189.5 Z"/></g>
<g><path style="opacity:0.004" fill="#fefffe" d="M 23.5,191.5 C 24.8333,192.167 24.8333,192.167 23.5,191.5 Z"/></g>
<g><path style="opacity:1" fill="#26ab47" d="M 144.5,207.5 C 119.213,216.037 94.2132,214.871 69.5,204C 66.7613,202.974 64.428,201.474 62.5,199.5C 67.1103,199.404 67.4436,198.404 63.5,196.5C 65.572,193.846 67.2387,194.18 68.5,197.5C 71.4388,196.016 74.4388,194.683 77.5,193.5C 78.9317,193.733 79.4317,194.4 79,195.5C 75.7466,197.543 72.5799,199.71 69.5,202C 72.4224,204.359 75.5891,204.859 79,203.5C 80.8261,204.01 80.9928,204.844 79.5,206C 86.5525,207.666 93.5525,209.333 100.5,211C 107.833,211.667 115.167,211.667 122.5,211C 129.769,209.379 137.102,208.213 144.5,207.5 Z"/></g>
<g><path style="opacity:0.004" fill="#fefffe" d="M 200.5,197.5 C 199.833,196.167 199.833,196.167 200.5,197.5 Z"/></g>
<g><path style="opacity:0.004" fill="#fefffe" d="M 200.5,197.5 C 201.833,198.167 201.833,198.167 200.5,197.5 Z"/></g>
<g><path style="opacity:0.004" fill="#fefffe" d="M 42.5,198.5 C 43.8333,199.167 43.8333,199.167 42.5,198.5 Z"/></g>
<g><path style="opacity:0.004" fill="#fefffe" d="M 35.5,200.5 C 36.8333,201.167 36.8333,201.167 35.5,200.5 Z"/></g>
<g><path style="opacity:0.004" fill="#fefffe" d="M 33.5,201.5 C 34.8333,202.167 34.8333,202.167 33.5,201.5 Z"/></g>
<g><path style="opacity:0.004" fill="#fefffe" d="M 61.5,205.5 C 62.8333,206.167 62.8333,206.167 61.5,205.5 Z"/></g>
<g><path style="opacity:0.004" fill="#fefffe" d="M 173.5,209.5 C 174.833,210.167 174.833,210.167 173.5,209.5 Z"/></g>
<g><path style="opacity:0.004" fill="#fefffe" d="M 78.5,210.5 C 79.8333,211.167 79.8333,211.167 78.5,210.5 Z"/></g>
<g><path style="opacity:0.004" fill="#fefffe" d="M 141.5,210.5 C 142.833,211.167 142.833,211.167 141.5,210.5 Z"/></g>
<g><path style="opacity:0.004" fill="#fefffe" d="M 213.5,210.5 C 214.833,211.167 214.833,211.167 213.5,210.5 Z"/></g>
<g><path style="opacity:0.004" fill="#fefffe" d="M 35.5,215.5 C 36.8333,216.167 36.8333,216.167 35.5,215.5 Z"/></g>
<g><path style="opacity:0.004" fill="#fefffe" d="M 82.5,217.5 C 83.8333,218.167 83.8333,218.167 82.5,217.5 Z"/></g>
<g><path style="opacity:0.004" fill="#fefffe" d="M 191.5,221.5 C 190.833,220.167 190.833,220.167 191.5,221.5 Z"/></g>
</svg>
